<svg xmlns="http://www.w3.org/2000/svg" viewBox="0 0 100 100" width="100" height="100">
  <!-- 足球背景 -->
  <circle cx="50" cy="50" r="48" fill="#ffffff" stroke="#000000" stroke-width="2"/>

  <!-- 足球经典五边形/六边形图案 -->
  <!-- 顶部五边形 -->
  <polygon points="50,10 69,22 76,43 63,63 37,63 24,43 31,22" fill="#000000"/>
  <!-- 左侧五边形 -->
  <polygon points="23,26 42,16 61,26 56,48 35,62 14,52 9,34" fill="#000000"/>
  <!-- 右侧五边形 -->
  <polygon points="77,26 58,16 39,26 44,48 65,62 86,52 91,34" fill="#000000"/>
  <!-- 左下五边形 -->
  <polygon points="12,47 32,59 46,80 26,91 8,76 5,58" fill="#000000"/>
  <!-- 右下五边形 -->
  <polygon points="88,47 68,59 54,80 74,91 92,76 95,58" fill="#000000"/>
  <!-- 底部五边形 -->
  <polygon points="50,90 70,78 82,58 68,38 32,38 18,58 30,78" fill="#000000"/>
</svg>
